<mxfile host="app.diagrams.net" modified="2023-09-27T05:47:21.434Z" agent="Mozilla/5.0 (Windows NT 10.0; Win64; x64) AppleWebKit/537.36 (KHTML, like Gecko) Chrome/117.0.0.0 Safari/537.36 Edg/117.0.2045.41" etag="g3NDDfMtmytfat-PF5zK" version="21.7.2" type="github">
  <diagram name="第 1 页" id="WVetOxo7rWprdEWdv1dO">
    <mxGraphModel dx="570" dy="253" grid="1" gridSize="10" guides="1" tooltips="1" connect="1" arrows="1" fold="1" page="1" pageScale="1" pageWidth="827" pageHeight="1169" math="0" shadow="0">
      <root>
        <mxCell id="0" />
        <mxCell id="1" parent="0" />
        <mxCell id="MNkrM5vl-jbfUFuz_sfn-10" style="edgeStyle=orthogonalEdgeStyle;rounded=0;orthogonalLoop=1;jettySize=auto;html=1;entryX=0.5;entryY=0;entryDx=0;entryDy=0;" edge="1" parent="1" source="MNkrM5vl-jbfUFuz_sfn-1" target="MNkrM5vl-jbfUFuz_sfn-2">
          <mxGeometry relative="1" as="geometry" />
        </mxCell>
        <mxCell id="MNkrM5vl-jbfUFuz_sfn-1" value="云控平台UI" style="rounded=0;whiteSpace=wrap;html=1;" vertex="1" parent="1">
          <mxGeometry x="280" y="90" width="240" height="100" as="geometry" />
        </mxCell>
        <mxCell id="MNkrM5vl-jbfUFuz_sfn-2" value="云控平台-&lt;br&gt;WebSocketServer" style="rounded=0;whiteSpace=wrap;html=1;" vertex="1" parent="1">
          <mxGeometry x="270" y="300" width="260" height="100" as="geometry" />
        </mxCell>
        <mxCell id="MNkrM5vl-jbfUFuz_sfn-6" style="edgeStyle=orthogonalEdgeStyle;rounded=0;orthogonalLoop=1;jettySize=auto;html=1;entryX=0.5;entryY=1;entryDx=0;entryDy=0;" edge="1" parent="1" source="MNkrM5vl-jbfUFuz_sfn-9" target="MNkrM5vl-jbfUFuz_sfn-2">
          <mxGeometry relative="1" as="geometry" />
        </mxCell>
        <mxCell id="MNkrM5vl-jbfUFuz_sfn-3" value="精卫助手&lt;br&gt;websocket&amp;nbsp;模块" style="rounded=0;whiteSpace=wrap;html=1;" vertex="1" parent="1">
          <mxGeometry x="270" y="485" width="260" height="100" as="geometry" />
        </mxCell>
        <mxCell id="MNkrM5vl-jbfUFuz_sfn-4" value="云下数据" style="rounded=0;whiteSpace=wrap;html=1;" vertex="1" parent="1">
          <mxGeometry x="270" y="690" width="260" height="100" as="geometry" />
        </mxCell>
        <mxCell id="MNkrM5vl-jbfUFuz_sfn-5" value="" style="shape=cylinder3;whiteSpace=wrap;html=1;boundedLbl=1;backgroundOutline=1;size=15;" vertex="1" parent="1">
          <mxGeometry x="470" y="340" width="37.5" height="50" as="geometry" />
        </mxCell>
        <mxCell id="MNkrM5vl-jbfUFuz_sfn-7" value="&lt;font style=&quot;font-size: 8px;&quot;&gt;列表&lt;/font&gt;" style="rounded=1;whiteSpace=wrap;html=1;" vertex="1" parent="1">
          <mxGeometry x="476.25" y="380" width="31.25" height="10" as="geometry" />
        </mxCell>
        <mxCell id="MNkrM5vl-jbfUFuz_sfn-8" value="" style="edgeStyle=orthogonalEdgeStyle;rounded=0;orthogonalLoop=1;jettySize=auto;html=1;entryX=0.5;entryY=1;entryDx=0;entryDy=0;" edge="1" parent="1" source="MNkrM5vl-jbfUFuz_sfn-3" target="MNkrM5vl-jbfUFuz_sfn-9">
          <mxGeometry relative="1" as="geometry">
            <mxPoint x="400" y="485" as="sourcePoint" />
            <mxPoint x="400" y="400" as="targetPoint" />
          </mxGeometry>
        </mxCell>
        <mxCell id="MNkrM5vl-jbfUFuz_sfn-9" value="1.注册" style="text;html=1;strokeColor=none;fillColor=none;align=center;verticalAlign=middle;whiteSpace=wrap;rounded=0;" vertex="1" parent="1">
          <mxGeometry x="370" y="425" width="60" height="30" as="geometry" />
        </mxCell>
      </root>
    </mxGraphModel>
  </diagram>
</mxfile>
